<svg id='Copyright_24' width='24' height='24' viewBox='0 0 24 24' xmlns='http://www.w3.org/2000/svg' xmlns:xlink='http://www.w3.org/1999/xlink'><rect width='24' height='24' stroke='none' fill='#737373' opacity='0'/>


<g transform="matrix(0.77 0 0 0.77 12 12)" >
<path style="stroke: none; stroke-width: 1; stroke-dasharray: none; stroke-linecap: butt; stroke-dashoffset: 0; stroke-linejoin: miter; stroke-miterlimit: 4; fill:  rgb(115 115 115); fill-rule: nonzero; opacity: 1;" transform=" translate(-13, -13)" d="M 13 0 C 5.832031 0 0 5.832031 0 13 C 0 20.167969 5.832031 26 13 26 C 20.167969 26 26 20.167969 26 13 C 26 5.832031 20.167969 0 13 0 Z M 13 2 C 19.085938 2 24 6.914063 24 13 C 24 19.085938 19.085938 24 13 24 C 6.914063 24 2 19.085938 2 13 C 2 6.914063 6.914063 2 13 2 Z M 13 6 C 9.101563 6 6 9.101563 6 13 C 6 16.898438 9.101563 20 13 20 C 16.199219 20 18.789063 17.898438 19.6875 15 L 17.59375 15 C 16.792969 16.800781 15 18 13 18 C 10.199219 18 8 15.800781 8 13 C 8 10.199219 10.199219 8 13 8 C 15 8 16.792969 9.199219 17.59375 11 L 19.6875 11 C 18.789063 8.101563 16.199219 6 13 6 Z" stroke-linecap="round" />
</g>
</svg>